<svg xmlns="http://www.w3.org/2000/svg" version="1.1" xmlns:xlink="http://www.w3.org/1999/xlink" viewBox="0 0 200 200" width="200" height="200"><rect width="200" height="200" fill="url('#gradient')"></rect><defs><linearGradient id="gradient" gradientTransform="rotate(214 0.5 0.5)"><stop offset="0%" stop-color="#514f62"></stop><stop offset="100%" stop-color="#34d399"></stop></linearGradient></defs><g><g fill="#ffffff" transform="matrix(6.1337770382695505,0,0,6.1337770382695505,3.4216089714783493,143.61053042752968)" stroke="#514f62" stroke-width="0.2"><path d="M1.07-14.22L5.58-14.22L8.75-4.33L11.91-14.22L16.43-14.22L16.43 0L12.99 0L12.99-3.32L13.32-10.12L9.88 0L7.62 0L4.17-10.13L4.50-3.32L4.50 0L1.07 0L1.07-14.22ZM21.75-14.22L24.07-9.49L26.40-14.22L30.31-14.22L26.34-7.17L30.42 0L26.46 0L24.07-4.81L21.68 0L17.73 0L21.81-7.17L17.84-14.22L21.75-14.22Z"></path></g></g></svg>